<svg width="187" height="42" viewBox="0 0 187 42" fill="none" xmlns="http://www.w3.org/2000/svg">
<path fill-rule="evenodd" clip-rule="evenodd" d="M18.3854 37.2087L21.3458 42L33.0899 23.8135L21.6769 23.8135L13.1074 37.066L5.02483 25.0164L10.147 24.9757L14.4513 31.3572L15.9509 28.9718L11.6078 22.5087L0 22.5087L13.049 41.9388L23.1571 26.2805L28.2598 26.2805L21.2484 37.0048L19.9046 34.8437L18.3854 37.2087Z" fill="white"/>
<path fill-rule="evenodd" clip-rule="evenodd" d="M13.1074 4.93394L21.6769 18.1864L33.0899 18.1864L21.3458 -5.13126e-05L18.3854 4.79123L19.9046 7.15629L21.2484 4.99511L28.2598 15.7194L23.1571 15.7194L13.049 0.0611115L0 19.4913L11.6078 19.4913L15.9509 13.0281L14.4513 10.6427L10.147 17.0243L5.02483 16.9835L13.1074 4.93394Z" fill="white"/>
<path fill-rule="evenodd" clip-rule="evenodd" d="M55.1457 16.3136L52.7744 19.8162H46.0746C45.3218 19.8162 44.6571 20.0827 44.0797 20.6156C43.5527 21.1995 43.2893 21.8717 43.2893 22.633C43.2893 23.4194 43.5527 24.0786 44.0797 24.6123C44.6315 25.1703 45.2969 25.4497 46.0746 25.4497H55.1457L52.7744 28.8755H45.6229C43.8666 28.8755 42.3731 28.2543 41.1438 27.0111C39.9642 25.8182 39.3748 24.3466 39.3748 22.5949C39.3748 20.844 39.9642 19.3465 41.1438 18.1041C42.3731 16.9119 43.8666 16.3144 45.6229 16.3144H55.1457V16.3136ZM62.6359 23.8312L55.9737 16.3136L61.2056 16.2755L62.6359 17.8932L65.3459 20.9574L69.3733 16.2755H74.417L67.4914 24.4212V28.8366H63.2005V24.4593L62.6359 23.8312ZM72.648 19.6632H72.6103L75.4333 16.2755H84.2409C85.4958 16.2755 86.5745 16.7201 87.4779 17.6078C88.3812 18.5213 88.8329 19.613 88.8329 20.8813V21.0335C88.8329 22.3026 88.3812 23.3942 87.4779 24.307C86.5745 25.2206 85.4958 25.6781 84.2409 25.6781H76.7506V28.7993H72.648V22.2904H83.4128C83.7644 22.2904 84.0655 22.1632 84.3162 21.9097C84.5668 21.6555 84.6926 21.3517 84.6926 20.9962V20.9581C84.6926 20.6026 84.5668 20.2981 84.3162 20.0446C84.0655 19.7911 83.7644 19.664 83.4128 19.664H80.0253H72.648V19.6632ZM100.614 16.2755H104.717V28.7986H100.614V24.2689H94.0271V28.7986H89.9244V16.2755H94.0271V20.6529H100.614V16.2755ZM167.763 19.8155H161.063C160.31 19.8155 159.645 20.0819 159.068 20.6148C158.541 21.1987 158.277 21.8709 158.277 22.6322C158.277 23.4186 158.541 24.0779 159.068 24.6115C159.62 25.1695 160.285 25.4489 161.063 25.4489H170.134L167.763 28.8747H160.611C158.855 28.8747 157.361 28.2535 156.132 27.0103C154.952 25.8174 154.363 24.3458 154.363 22.5941C154.363 20.8432 154.952 19.3458 156.132 18.1033C157.361 16.9112 158.855 16.3136 160.611 16.3136H170.134L167.763 19.8155ZM110.137 24.2309V25.5251H117.213L117.175 28.8366L106.072 28.7986L106.109 16.2755H118.606L116.385 19.549H110.174L110.137 20.9581H115.896L113.675 24.2317H110.137V24.2309ZM180.711 16.2755H186.582L178.264 22.518L186.77 28.7986H180.974L175.253 24.8018V28.7986H171.15V16.2755H175.253V20.3103L180.711 16.2755ZM118.154 19.6632L120.6 16.2755H129.784C131.039 16.2755 132.118 16.7201 133.021 17.6078C133.925 18.5213 134.376 19.613 134.376 20.8813V21.0335C134.376 22.3026 133.925 23.3942 133.021 24.307C132.745 24.5864 132.47 24.8148 132.193 24.9922L135.581 28.7224H129.672L127.037 25.6773H122.294V28.7986H118.192V22.2896H128.956C129.308 22.2896 129.609 22.1625 129.86 21.909C130.11 21.6547 130.236 21.351 130.236 20.9955V20.9574C130.236 20.6019 130.11 20.2974 129.86 20.0439C129.609 19.7903 129.308 19.6632 128.956 19.6632H125.569H118.192H118.154ZM136.748 18.1026C138.003 16.9104 139.471 16.3128 141.152 16.3128H147.4C149.106 16.3128 150.561 16.9097 151.766 18.1026C152.97 19.3206 153.573 20.7922 153.573 22.518C153.573 24.269 152.97 25.7535 151.766 26.9715C150.561 28.1903 149.106 28.7986 147.4 28.7986H141.152C139.471 28.7986 138.002 28.1895 136.748 26.9715C135.568 25.7535 134.979 24.269 134.979 22.518C134.979 20.8181 135.568 19.3458 136.748 18.1026ZM140.06 20.6148C139.533 21.1477 139.27 21.7948 139.27 22.5561C139.27 23.3173 139.533 23.9652 140.06 24.4973C140.587 25.0302 141.227 25.2974 141.98 25.2974H146.647C147.4 25.2974 148.04 25.0302 148.567 24.4973C149.093 23.9652 149.357 23.3173 149.357 22.5561C149.357 21.7948 149.093 21.1477 148.567 20.6148C148.04 20.0819 147.4 19.8155 146.647 19.8155H141.98C141.227 19.8155 140.587 20.0819 140.06 20.6148Z" fill="white"/>
</svg>
